<svg width="315" height="435" viewBox="0 0 315 435" fill="none" xmlns="http://www.w3.org/2000/svg">
<path d="M95 434.782H0V339.782H95V434.782ZM158.54 0C157.839 41.5387 157.139 81.9381 156.438 121.198C156.087 138.024 155.824 155.376 155.648 173.253C155.473 191.13 155.21 208.745 154.859 226.097C154.684 243.448 154.509 260.099 154.334 276.049V318.901L314.179 314.433V396.983C290.167 395.406 265.98 394.179 241.618 393.303C217.256 392.426 192.805 391.988 168.268 391.988C154.178 391.988 140.089 392.149 126 392.469V306.782H45.4072C45.4358 305.564 45.4647 304.345 45.4922 303.127C46.1933 271.929 46.5439 240.556 46.5439 209.008C46.5439 173.779 46.1933 138.725 45.4922 103.847C44.7911 68.7929 43.7391 34.1774 42.3369 0H158.54Z" fill="black"/>
</svg>
